/* XPM */ 
static const unsigned char * fanntool_icon_xpm[] = {
"16 16 9 1",
" 	c None",
"!	c #0071BC",
"#	c black",
"$	c white",
"%	c #0A7FC5",
"&	c #1C98D6",
"'	c #29ABE2",
"(	c #148ECF",
")	c #26A7DF",
"!!!!!!!!!       ",
"!$$$$!!!!!      ",
"!$$$$!!!!!!     ",
"!$$!!!!!!!!     ",
"!$$!!!!!!!!     ",
"!$$$$!!%&'''''  ",
"!$$$$!!'''''''' ",
"!$$!!'''''''''''",
"!$$!!'''''''''''",
"!$$(''########''",
"!$$)''########''",
"!!!''''''##'''''",
"!!!''''''##'''''",
"   ''''''##'''''",
"   ''''''##'''''",
"   ''''''##'''''"};